<svg width="16.0715" height="16.0714" viewBox="0 0 16.0715 16.0714" fill="none" xmlns="http://www.w3.org/2000/svg">
<g id="Group">
<path id="Vector" d="M8.03571 5.53571C8.03571 4.70238 8.63071 3.86905 9.82155 3.86905C10.453 3.86905 11.0586 3.61821 11.5051 3.17172C11.9515 2.72522 12.2024 2.11965 12.2024 1.48821V0.952381M4.70238 5.53571V5.11905C4.70238 4.45601 4.96577 3.82012 5.43461 3.35128C5.90345 2.88244 6.53934 2.61905 7.20238 2.61905C7.64441 2.61905 8.06833 2.44345 8.38089 2.13089C8.69345 1.81833 8.86905 1.39441 8.86905 0.952381V0.535714M12.2024 7.70238V10.5357C12.2024 11.8618 11.6756 13.1336 10.7379 14.0712C9.80023 15.0089 8.52846 15.5357 7.20238 15.5357H5.53571C4.20963 15.5357 2.93786 15.0089 2.00018 14.0712C1.0625 13.1336 0.535714 11.8618 0.535714 10.5357V7.70238C0.535714 7.56977 0.588393 7.4426 0.682161 7.34883C0.775929 7.25506 0.903106 7.20238 1.03571 7.20238H11.7024C11.835 7.20238 11.9622 7.25506 12.0559 7.34883C12.1497 7.4426 12.2024 7.56977 12.2024 7.70238Z" stroke="#000000" stroke-width="1.07143" stroke-linecap="round" stroke-linejoin="round"/>
<path id="Vector_2" d="M11.3691 7.20232H13.4524C14.005 7.20232 14.5349 7.42182 14.9256 7.81252C15.3163 8.20322 15.5358 8.73312 15.5358 9.28566C15.5358 9.83819 15.3163 10.3681 14.9256 10.7588C14.5349 11.1495 14.005 11.369 13.4524 11.369H12.2024" stroke="#000000" stroke-width="1.07143" stroke-linecap="round" stroke-linejoin="round"/>
</g>
</svg>
